<svg xmlns="http://www.w3.org/2000/svg" width="1200" height="950" viewBox="0 0 1200 950"><style>text{font-family:Arial,"PingFang SC",sans-serif}</style><rect x="0.00" y="0.00" width="1200.00" height="950.00" fill="#fcfaf5" stroke="none" stroke-width="1" rx="0"/><text x="58.00" y="60.00" font-size="28" fill="#263a38" text-anchor="start" font-weight="650">03 / 湖畔庄园 · 总平面</text><text x="58.00" y="96.00" font-size="16" fill="#697773" text-anchor="start" font-weight="400">80m × 50m = 4000㎡  /  建筑基底500㎡ · 两层建筑1000㎡</text><rect x="120.00" y="170.00" width="960.00" height="600.00" fill="#dce6d2" stroke="#516b57" stroke-width="3" rx="0"/><rect x="420.00" y="170.00" width="360.00" height="96.00" fill="#d6d4ca" stroke="#6e8370" stroke-width="1.5" rx="3"/><text x="600.00" y="223.00" font-size="15" fill="#263a38" text-anchor="middle" font-weight="550">入口 / 车道</text><rect x="450.00" y="266.00" width="300.00" height="240.00" fill="#e7d7bf" stroke="#6e8370" stroke-width="1.5" rx="3"/><text x="600.00" y="391.00" font-size="15" fill="#263a38" text-anchor="middle" font-weight="550">别墅 · 两层</text><rect x="420.00" y="506.00" width="360.00" height="72.00" fill="#eae0c9" stroke="#6e8370" stroke-width="1.5" rx="3"/><text x="600.00" y="547.00" font-size="15" fill="#263a38" text-anchor="middle" font-weight="550">南向露台</text><rect x="528.00" y="602.00" width="144.00" height="60.00" fill="#95c5c5" stroke="#6e8370" stroke-width="1.5" rx="3"/><text x="600.00" y="637.00" font-size="15" fill="#263a38" text-anchor="middle" font-weight="550">泳池 12 × 5m</text><rect x="180.00" y="470.00" width="204.00" height="216.00" fill="#c4d5b5" stroke="#6e8370" stroke-width="1.5" rx="3"/><text x="282.00" y="583.00" font-size="15" fill="#263a38" text-anchor="middle" font-weight="550">活动草坪</text><rect x="816.00" y="314.00" width="192.00" height="312.00" fill="#c4d5b5" stroke="#6e8370" stroke-width="1.5" rx="3"/><text x="912.00" y="475.00" font-size="15" fill="#263a38" text-anchor="middle" font-weight="550">花园步道</text><circle cx="168" cy="218" r="20.4" fill="#90ad89" stroke="#789570"/><circle cx="252" cy="230" r="20.4" fill="#90ad89" stroke="#789570"/><circle cx="336" cy="218" r="20.4" fill="#90ad89" stroke="#789570"/><circle cx="876" cy="230" r="20.4" fill="#90ad89" stroke="#789570"/><circle cx="984" cy="242" r="20.4" fill="#90ad89" stroke="#789570"/><circle cx="1032" cy="350" r="20.4" fill="#90ad89" stroke="#789570"/><circle cx="1020" cy="530" r="20.4" fill="#90ad89" stroke="#789570"/><circle cx="996" cy="710" r="20.4" fill="#90ad89" stroke="#789570"/><circle cx="828" cy="710" r="20.4" fill="#90ad89" stroke="#789570"/><circle cx="384" cy="722" r="20.4" fill="#90ad89" stroke="#789570"/><circle cx="180" cy="722" r="20.4" fill="#90ad89" stroke="#789570"/><circle cx="168" cy="374" r="20.4" fill="#90ad89" stroke="#789570"/><path d="M 600 170 V 266 M 600 506 V 602" stroke="#6c8f81" stroke-width="3" stroke-dasharray="8 6"/><text x="1120.00" y="98.00" font-size="18" fill="#263a38" text-anchor="middle" font-weight="650">N ↑</text><text x="600.00" y="817.00" font-size="16" fill="#263a38" text-anchor="middle" font-weight="400">南侧远景：湖面与林地（场外背景，不计入4000㎡）</text><text x="58.00" y="876.00" font-size="14" fill="#263a38" text-anchor="start" font-weight="400">首版保持完整两层楼板；露台和泳池计入场地，不能再次计入室内建筑面积。</text><text x="58.00" y="909.00" font-size="13" fill="#697773" text-anchor="start" font-weight="400">总平面为功能与尺度依据；植物、路径边缘与景观细节在建模阶段展开。</text></svg>