<svg xmlns="http://www.w3.org/2000/svg" width="1200" height="1020" viewBox="0 0 1200 1020"><style>text{font-family:Arial,"PingFang SC","Microsoft YaHei",sans-serif}</style><rect x="0.00" y="0.00" width="1200.00" height="1020.00" fill="#fcfaf5" stroke="none" stroke-width="1" rx="0"/><text x="58.00" y="57.00" font-size="28" fill="#263a38" text-anchor="start" font-weight="650">02 / 林景大平层</text><text x="58.00" y="92.00" font-size="16" fill="#697773" text-anchor="start" font-weight="400">200㎡ · 四室两厅 · 3.0m 层高</text><text x="58.00" y="120.00" font-size="13" fill="#697773" text-anchor="start" font-weight="400">空间分区概念图  /  北向上 · 米制 · 非施工图</text><rect x="90.00" y="170.00" width="193.80" height="214.20" fill="#e8e0d5" stroke="#4c605b" stroke-width="6.12" rx="0"/><rect x="141.00" y="266.39" width="91.80" height="96.39" fill="#fefdf9" stroke="#8d998f" stroke-width="1.3" rx="3"/><rect x="145.00" y="270.39" width="39.90" height="21.21" fill="#e7dfce" stroke="none" stroke-width="1" rx="2"/><rect x="188.90" y="270.39" width="39.90" height="21.21" fill="#e7dfce" stroke="none" stroke-width="1" rx="2"/><text x="186.90" y="196.00" font-size="16" fill="#263a38" text-anchor="middle" font-weight="550">次卧 A</text><rect x="283.80" y="170.00" width="193.80" height="214.20" fill="#e8e0d5" stroke="#4c605b" stroke-width="6.12" rx="0"/><rect x="334.80" y="266.39" width="91.80" height="96.39" fill="#fefdf9" stroke="#8d998f" stroke-width="1.3" rx="3"/><rect x="338.80" y="270.39" width="39.90" height="21.21" fill="#e7dfce" stroke="none" stroke-width="1" rx="2"/><rect x="382.70" y="270.39" width="39.90" height="21.21" fill="#e7dfce" stroke="none" stroke-width="1" rx="2"/><text x="380.70" y="196.00" font-size="16" fill="#263a38" text-anchor="middle" font-weight="550">次卧 B</text><rect x="477.60" y="170.00" width="183.60" height="214.20" fill="#e8e0d5" stroke="#4c605b" stroke-width="6.12" rx="0"/><rect x="518.91" y="268.53" width="100.98" height="51.00" fill="#b7b8a6" stroke="#879087" stroke-width="1.2" rx="4"/><text x="569.40" y="196.00" font-size="16" fill="#263a38" text-anchor="middle" font-weight="550">书房 / 客卧</text><rect x="804.00" y="170.00" width="122.40" height="122.40" fill="#dde7e6" stroke="#4c605b" stroke-width="6.12" rx="0"/><rect x="822.36" y="231.20" width="34.27" height="42.84" fill="#fdfefb" stroke="#849b99" stroke-width="1" rx="4"/><rect x="874.99" y="233.65" width="30.60" height="30.60" fill="#fdfefb" stroke="#849b99" stroke-width="1" rx="7"/><text x="865.20" y="196.00" font-size="16" fill="#263a38" text-anchor="middle" font-weight="550">主卫</text><rect x="804.00" y="292.40" width="122.40" height="91.80" fill="#e8e0d5" stroke="#4c605b" stroke-width="6.12" rx="0"/><text x="865.20" y="317.19" font-size="16" fill="#263a38" text-anchor="middle" font-weight="550">主卧衣帽区</text><rect x="926.40" y="170.00" width="183.60" height="214.20" fill="#e8e0d5" stroke="#4c605b" stroke-width="6.12" rx="0"/><rect x="972.30" y="266.39" width="91.80" height="96.39" fill="#fefdf9" stroke="#8d998f" stroke-width="1.3" rx="3"/><rect x="976.30" y="270.39" width="39.90" height="21.21" fill="#e7dfce" stroke="none" stroke-width="1" rx="2"/><rect x="1020.20" y="270.39" width="39.90" height="21.21" fill="#e7dfce" stroke="none" stroke-width="1" rx="2"/><text x="1018.20" y="196.00" font-size="16" fill="#263a38" text-anchor="middle" font-weight="550">主卧</text><rect x="90.00" y="384.20" width="1020.00" height="61.20" fill="#faf6ed" stroke="#4c605b" stroke-width="6.12" rx="0"/><text x="600.00" y="419.80" font-size="16" fill="#263a38" text-anchor="middle" font-weight="550">玄关 · 卧室走廊</text><rect x="90.00" y="445.40" width="214.20" height="234.60" fill="#dde7e6" stroke="#4c605b" stroke-width="6.12" rx="0"/><rect x="100.20" y="550.97" width="28.05" height="107.92" fill="#b8c5bf" stroke="none" stroke-width="1" rx="0"/><rect x="100.20" y="646.85" width="193.80" height="22.95" fill="#b8c5bf" stroke="none" stroke-width="1" rx="0"/><text x="197.10" y="471.40" font-size="16" fill="#263a38" text-anchor="middle" font-weight="550">厨房 / 岛台</text><rect x="304.20" y="445.40" width="244.80" height="234.60" fill="#f2e9d7" stroke="#4c605b" stroke-width="6.12" rx="0"/><rect x="375.60" y="576.78" width="102.00" height="51.00" fill="#c2a77f" stroke="#8d806d" stroke-width="1" rx="5"/><rect x="396.00" y="558.93" width="17.85" height="14.28" fill="#faf7ed" stroke="#8d806d" stroke-width="1" rx="3"/><rect x="396.00" y="630.84" width="17.85" height="14.28" fill="#faf7ed" stroke="#8d806d" stroke-width="1" rx="3"/><rect x="447.00" y="558.93" width="17.85" height="14.28" fill="#faf7ed" stroke="#8d806d" stroke-width="1" rx="3"/><rect x="447.00" y="630.84" width="17.85" height="14.28" fill="#faf7ed" stroke="#8d806d" stroke-width="1" rx="3"/><text x="426.60" y="471.40" font-size="16" fill="#263a38" text-anchor="middle" font-weight="550">餐厅</text><rect x="549.00" y="445.40" width="561.00" height="173.40" fill="#f2e9d7" stroke="#4c605b" stroke-width="6.12" rx="0"/><rect x="778.50" y="525.16" width="102.00" height="28.30" fill="#fbf9f3" stroke="#97a493" stroke-width="1.5" rx="7"/><rect x="799.92" y="569.28" width="59.16" height="31.63" fill="#bcac8c" stroke="none" stroke-width="1" rx="9"/><text x="829.50" y="471.40" font-size="16" fill="#263a38" text-anchor="middle" font-weight="550">客厅 / 阅读角</text><rect x="549.00" y="618.80" width="561.00" height="61.20" fill="#dce6cf" stroke="#4c605b" stroke-width="6.12" rx="0"/><text x="829.50" y="635.32" font-size="16" fill="#263a38" text-anchor="middle" font-weight="550">景观阳台</text><rect x="661.20" y="170.00" width="142.80" height="153.00" fill="#dde7e6" stroke="#4c605b" stroke-width="6.12" rx="0"/><rect x="682.62" y="246.50" width="39.98" height="53.55" fill="#fdfefb" stroke="#849b99" stroke-width="1" rx="4"/><rect x="744.02" y="249.56" width="35.70" height="38.25" fill="#fdfefb" stroke="#849b99" stroke-width="1" rx="7"/><text x="732.60" y="196.00" font-size="16" fill="#263a38" text-anchor="middle" font-weight="550">公共卫生间</text><rect x="661.20" y="323.00" width="63.75" height="61.20" fill="#dde7e6" stroke="#4c605b" stroke-width="6.12" rx="0"/><text x="693.07" y="339.52" font-size="16" fill="#263a38" text-anchor="middle" font-weight="550">洗衣柜</text><rect x="724.95" y="323.00" width="79.05" height="61.20" fill="#faf6ed" stroke="#4c605b" stroke-width="6.12" rx="0"/><text x="764.47" y="358.60" font-size="16" fill="#263a38" text-anchor="middle" font-weight="550">卫浴前室</text><path d="M 90.0 384.19999999999993 v 61.199999999999996" stroke="#fcfaf5" stroke-width="10.200000000000001"/><path d="M 90.0 384.19999999999993 v 61.199999999999996" stroke="#477e77" stroke-dasharray="4 3" stroke-width="1.5"/><path d="M 206.02499999999998 384.20000000000005 h 53.550000000000004" stroke="#fcfaf5" stroke-width="10.200000000000001"/><path d="M 206.02499999999998 384.20000000000005 h 53.550000000000004" stroke="#477e77" stroke-dasharray="4 3" stroke-width="1.5"/><path d="M 399.825 384.20000000000005 h 53.550000000000004" stroke="#fcfaf5" stroke-width="10.200000000000001"/><path d="M 399.825 384.20000000000005 h 53.550000000000004" stroke="#477e77" stroke-dasharray="4 3" stroke-width="1.5"/><path d="M 568.1250000000001 384.20000000000005 h 53.550000000000004" stroke="#fcfaf5" stroke-width="10.200000000000001"/><path d="M 568.1250000000001 384.20000000000005 h 53.550000000000004" stroke="#477e77" stroke-dasharray="4 3" stroke-width="1.5"/><path d="M 960.825 384.20000000000005 h 53.550000000000004" stroke="#fcfaf5" stroke-width="10.200000000000001"/><path d="M 960.825 384.20000000000005 h 53.550000000000004" stroke="#477e77" stroke-dasharray="4 3" stroke-width="1.5"/><path d="M 926.4 308.975 v 53.550000000000004" stroke="#fcfaf5" stroke-width="10.200000000000001"/><path d="M 926.4 308.975 v 53.550000000000004" stroke="#477e77" stroke-dasharray="4 3" stroke-width="1.5"/><path d="M 838.425 292.4 h 53.550000000000004" stroke="#fcfaf5" stroke-width="10.200000000000001"/><path d="M 838.425 292.4 h 53.550000000000004" stroke="#477e77" stroke-dasharray="4 3" stroke-width="1.5"/><path d="M 166.5 445.40000000000003 h 71.39999999999999" stroke="#fcfaf5" stroke-width="10.200000000000001"/><path d="M 166.5 445.40000000000003 h 71.39999999999999" stroke="#477e77" stroke-dasharray="4 3" stroke-width="1.5"/><path d="M 355.2 445.40000000000003 h 102.0" stroke="#fcfaf5" stroke-width="10.200000000000001"/><path d="M 355.2 445.40000000000003 h 102.0" stroke="#477e77" stroke-dasharray="4 3" stroke-width="1.5"/><path d="M 651.0 445.40000000000003 h 102.0" stroke="#fcfaf5" stroke-width="10.200000000000001"/><path d="M 651.0 445.40000000000003 h 102.0" stroke="#477e77" stroke-dasharray="4 3" stroke-width="1.5"/><path d="M 304.20000000000005 491.29999999999995 v 102.0" stroke="#fcfaf5" stroke-width="10.200000000000001"/><path d="M 304.20000000000005 491.29999999999995 v 102.0" stroke="#477e77" stroke-dasharray="4 3" stroke-width="1.5"/><path d="M 549.0 460.69999999999993 v 142.79999999999998" stroke="#fcfaf5" stroke-width="10.200000000000001"/><path d="M 549.0 460.69999999999993 v 142.79999999999998" stroke="#477e77" stroke-dasharray="4 3" stroke-width="1.5"/><path d="M 727.5 618.8 h 153.0" stroke="#fcfaf5" stroke-width="10.200000000000001"/><path d="M 727.5 618.8 h 153.0" stroke="#477e77" stroke-dasharray="4 3" stroke-width="1.5"/><path d="M 737.6999999999999 384.20000000000005 h 51.0" stroke="#fcfaf5" stroke-width="10.200000000000001"/><path d="M 737.6999999999999 384.20000000000005 h 51.0" stroke="#477e77" stroke-dasharray="4 3" stroke-width="1.5"/><path d="M 737.6999999999999 323.0 h 51.0" stroke="#fcfaf5" stroke-width="10.200000000000001"/><path d="M 737.6999999999999 323.0 h 51.0" stroke="#477e77" stroke-dasharray="4 3" stroke-width="1.5"/><path d="M 724.9499999999999 333.20000000000005 v 40.800000000000004" stroke="#fcfaf5" stroke-width="10.200000000000001"/><path d="M 724.9499999999999 333.20000000000005 v 40.800000000000004" stroke="#477e77" stroke-dasharray="4 3" stroke-width="1.5"/><path d="M 138.45 170 h 96.89999999999999" stroke="#85b5bd" stroke-width="5"/><path d="M 332.25 170 h 96.89999999999999" stroke="#85b5bd" stroke-width="5"/><path d="M 523.5 170 h 91.8" stroke="#85b5bd" stroke-width="5"/><path d="M 972.2999999999998 170 h 91.8" stroke="#85b5bd" stroke-width="5"/><path d="M 353.16 680.0 h 146.88" stroke="#85b5bd" stroke-width="5"/><path d="M 661.1999999999999 680.0 h 336.59999999999997" stroke="#85b5bd" stroke-width="5"/><path d="M 90.0 703.0 v 12 M 90.0 709.0 h 1020.0 M 1110.0 703.0 v 12" stroke="#687d75" fill="none"/><text x="600.00" y="733.00" font-size="14" fill="#263a38" text-anchor="middle" font-weight="400">20 m</text><text x="78.00" y="425.00" font-size="12" fill="#263a38" text-anchor="end" font-weight="400">10m</text><text x="1124.00" y="80.00" font-size="17" fill="#263a38" text-anchor="middle" font-weight="700">N</text><path d="M1124 92 L1117 111 L1131 111 Z" fill="#315951"/><text x="58.00" y="944.00" font-size="13" fill="#263a38" text-anchor="start" font-weight="400">图例：沙色 = 起居 / 米灰 = 卧室 / 蓝灰 = 厨卫 / 浅色 = 通行 / 绿 = 室外</text><text x="58.00" y="968.00" font-size="13" fill="#697773" text-anchor="start" font-weight="400">绿色虚线 = 开口位置；蓝色 = 外窗。家具为尺度符号，不表示最终数量或精确摆放。</text><text x="58.00" y="992.00" font-size="12" fill="#697773" text-anchor="start" font-weight="400">面积按外轮廓与分区占位统计（含墙体及本图阳台），非室内净使用面积；细部须在3D白模阶段复核。</text></svg>