<svg xmlns="http://www.w3.org/2000/svg" width="1200" height="1020" viewBox="0 0 1200 1020"><style>text{font-family:Arial,"PingFang SC","Microsoft YaHei",sans-serif}</style><rect x="0.00" y="0.00" width="1200.00" height="1020.00" fill="#fcfaf5" stroke="none" stroke-width="1" rx="0"/><text x="58.00" y="57.00" font-size="28" fill="#263a38" text-anchor="start" font-weight="650">03 / 庄园别墅 · 二层</text><text x="58.00" y="92.00" font-size="16" fill="#697773" text-anchor="start" font-weight="400">500㎡ · 四套卧室 / 健身 / 阅读 · 3.2m 层高</text><text x="58.00" y="120.00" font-size="13" fill="#697773" text-anchor="start" font-weight="400">空间分区概念图  /  北向上 · 米制 · 非施工图</text><rect x="168.75" y="170.00" width="207.00" height="193.20" fill="#e8e0d5" stroke="#4c605b" stroke-width="4.14" rx="0"/><rect x="241.20" y="256.94" width="62.10" height="69.00" fill="#fefdf9" stroke="#8d998f" stroke-width="1.3" rx="3"/><rect x="245.20" y="260.94" width="25.05" height="15.18" fill="#e7dfce" stroke="none" stroke-width="1" rx="2"/><rect x="274.25" y="260.94" width="25.05" height="15.18" fill="#e7dfce" stroke="none" stroke-width="1" rx="2"/><text x="272.25" y="196.00" font-size="16" fill="#263a38" text-anchor="middle" font-weight="550">卧室套房 A</text><rect x="375.75" y="170.00" width="207.00" height="193.20" fill="#e8e0d5" stroke="#4c605b" stroke-width="4.14" rx="0"/><rect x="448.20" y="256.94" width="62.10" height="69.00" fill="#fefdf9" stroke="#8d998f" stroke-width="1.3" rx="3"/><rect x="452.20" y="260.94" width="25.05" height="15.18" fill="#e7dfce" stroke="none" stroke-width="1" rx="2"/><rect x="481.25" y="260.94" width="25.05" height="15.18" fill="#e7dfce" stroke="none" stroke-width="1" rx="2"/><text x="479.25" y="196.00" font-size="16" fill="#263a38" text-anchor="middle" font-weight="550">卧室套房 B</text><rect x="582.75" y="170.00" width="241.50" height="165.60" fill="#f2e9d7" stroke="#4c605b" stroke-width="4.14" rx="0"/><rect x="669.00" y="246.18" width="69.00" height="23.46" fill="#fbf9f3" stroke="#97a493" stroke-width="1.5" rx="7"/><rect x="683.49" y="282.75" width="40.02" height="26.22" fill="#bcac8c" stroke="none" stroke-width="1" rx="9"/><text x="703.50" y="196.00" font-size="16" fill="#263a38" text-anchor="middle" font-weight="550">楼上起居厅</text><rect x="582.75" y="335.60" width="241.50" height="131.10" fill="#faf6ed" stroke="#4c605b" stroke-width="4.14" rx="0"/><rect x="650.37" y="371.00" width="103.84" height="76.04" fill="#e0d7c5" stroke="#88928a" stroke-width="1" rx="0"/><path d="M 650.37 377.9095454545455 h 103.845" stroke="#88928a" stroke-width="1"/><path d="M 650.37 384.82209090909095 h 103.845" stroke="#88928a" stroke-width="1"/><path d="M 650.37 391.73463636363635 h 103.845" stroke="#88928a" stroke-width="1"/><path d="M 650.37 398.6471818181818 h 103.845" stroke="#88928a" stroke-width="1"/><path d="M 650.37 405.5597272727273 h 103.845" stroke="#88928a" stroke-width="1"/><path d="M 650.37 412.47227272727275 h 103.845" stroke="#88928a" stroke-width="1"/><path d="M 650.37 419.3848181818182 h 103.845" stroke="#88928a" stroke-width="1"/><path d="M 650.37 426.2973636363636 h 103.845" stroke="#88928a" stroke-width="1"/><path d="M 650.37 433.2099090909091 h 103.845" stroke="#88928a" stroke-width="1"/><path d="M 650.37 440.12245454545456 h 103.845" stroke="#88928a" stroke-width="1"/><text x="703.50" y="406.15" font-size="16" fill="#263a38" text-anchor="middle" font-weight="550">双跑楼梯</text><rect x="824.25" y="170.00" width="207.00" height="103.50" fill="#dde7e6" stroke="#4c605b" stroke-width="4.14" rx="0"/><rect x="855.30" y="221.75" width="57.96" height="36.22" fill="#fdfefb" stroke="#849b99" stroke-width="1" rx="4"/><rect x="944.31" y="223.82" width="51.75" height="25.88" fill="#fdfefb" stroke="#849b99" stroke-width="1" rx="7"/><text x="927.75" y="196.00" font-size="16" fill="#263a38" text-anchor="middle" font-weight="550">C 卫浴 / 衣帽</text><rect x="824.25" y="273.50" width="207.00" height="193.20" fill="#e8e0d5" stroke="#4c605b" stroke-width="4.14" rx="0"/><rect x="896.70" y="360.44" width="62.10" height="69.00" fill="#fefdf9" stroke="#8d998f" stroke-width="1.3" rx="3"/><rect x="900.70" y="364.44" width="25.05" height="15.18" fill="#e7dfce" stroke="none" stroke-width="1" rx="2"/><rect x="929.75" y="364.44" width="25.05" height="15.18" fill="#e7dfce" stroke="none" stroke-width="1" rx="2"/><text x="927.75" y="299.50" font-size="16" fill="#263a38" text-anchor="middle" font-weight="550">卧室套房 C</text><rect x="168.75" y="466.70" width="862.50" height="96.60" fill="#faf6ed" stroke="#4c605b" stroke-width="4.14" rx="0"/><text x="600.00" y="520.00" font-size="16" fill="#263a38" text-anchor="middle" font-weight="550">楼层分流走廊</text><rect x="168.75" y="563.30" width="262.20" height="296.70" fill="#e8e0d5" stroke="#4c605b" stroke-width="4.14" rx="0"/><rect x="268.80" y="696.81" width="62.10" height="69.00" fill="#fefdf9" stroke="#8d998f" stroke-width="1.3" rx="3"/><rect x="272.80" y="700.81" width="25.05" height="15.18" fill="#e7dfce" stroke="none" stroke-width="1" rx="2"/><rect x="301.85" y="700.81" width="25.05" height="15.18" fill="#e7dfce" stroke="none" stroke-width="1" rx="2"/><text x="299.85" y="589.30" font-size="16" fill="#263a38" text-anchor="middle" font-weight="550">主卧 / 私享起居</text><rect x="430.95" y="563.30" width="151.80" height="138.00" fill="#e8e0d5" stroke="#4c605b" stroke-width="4.14" rx="0"/><text x="506.85" y="589.30" font-size="16" fill="#263a38" text-anchor="middle" font-weight="550">主卧衣帽间</text><rect x="430.95" y="701.30" width="151.80" height="158.70" fill="#dde7e6" stroke="#4c605b" stroke-width="4.14" rx="0"/><rect x="453.72" y="780.65" width="42.50" height="55.54" fill="#fdfefb" stroke="#849b99" stroke-width="1" rx="4"/><rect x="518.99" y="783.82" width="37.95" height="39.67" fill="#fdfefb" stroke="#849b99" stroke-width="1" rx="7"/><text x="506.85" y="727.30" font-size="16" fill="#263a38" text-anchor="middle" font-weight="550">主卫</text><rect x="582.75" y="563.30" width="276.00" height="296.70" fill="#f2e9d7" stroke="#4c605b" stroke-width="4.14" rx="0"/><rect x="686.25" y="699.78" width="69.00" height="34.50" fill="#b7b8a6" stroke="#879087" stroke-width="1.2" rx="4"/><text x="720.75" y="589.30" font-size="16" fill="#263a38" text-anchor="middle" font-weight="550">健身房</text><rect x="168.75" y="363.20" width="62.10" height="103.50" fill="#faf6ed" stroke="#4c605b" stroke-width="4.14" rx="0"/><text x="199.80" y="419.95" font-size="13.212765957446809" fill="#263a38" text-anchor="middle" font-weight="550">A 前室</text><rect x="230.85" y="363.20" width="144.90" height="103.50" fill="#dde7e6" stroke="#4c605b" stroke-width="4.14" rx="0"/><rect x="252.58" y="414.95" width="40.57" height="36.22" fill="#fdfefb" stroke="#849b99" stroke-width="1" rx="4"/><rect x="314.89" y="417.02" width="36.23" height="25.88" fill="#fdfefb" stroke="#849b99" stroke-width="1" rx="7"/><text x="303.30" y="389.20" font-size="14.93814432989691" fill="#263a38" text-anchor="middle" font-weight="550">A 卫浴 / 衣帽</text><rect x="375.75" y="363.20" width="62.10" height="103.50" fill="#faf6ed" stroke="#4c605b" stroke-width="4.14" rx="0"/><text x="406.80" y="419.95" font-size="13.212765957446809" fill="#263a38" text-anchor="middle" font-weight="550">B 前室</text><rect x="437.85" y="363.20" width="144.90" height="103.50" fill="#dde7e6" stroke="#4c605b" stroke-width="4.14" rx="0"/><rect x="459.58" y="414.95" width="40.57" height="36.22" fill="#fdfefb" stroke="#849b99" stroke-width="1" rx="4"/><rect x="521.89" y="417.02" width="36.23" height="25.88" fill="#fdfefb" stroke="#849b99" stroke-width="1" rx="7"/><text x="510.30" y="389.20" font-size="14.93814432989691" fill="#263a38" text-anchor="middle" font-weight="550">B 卫浴 / 衣帽</text><rect x="858.75" y="563.30" width="48.30" height="296.70" fill="#faf6ed" stroke="#4c605b" stroke-width="4.14" rx="0"/><text x="882.90" y="716.65" font-size="13.054054054054053" fill="#263a38" text-anchor="middle" font-weight="550">东侧廊</text><rect x="907.05" y="563.30" width="124.20" height="138.00" fill="#dde7e6" stroke="#4c605b" stroke-width="4.14" rx="0"/><text x="969.15" y="589.30" font-size="16" fill="#263a38" text-anchor="middle" font-weight="550">洗衣房</text><rect x="907.05" y="701.30" width="124.20" height="158.70" fill="#f2e9d7" stroke="#4c605b" stroke-width="4.14" rx="0"/><rect x="935.00" y="774.30" width="68.31" height="34.50" fill="#b7b8a6" stroke="#879087" stroke-width="1.2" rx="4"/><text x="969.15" y="727.30" font-size="16" fill="#263a38" text-anchor="middle" font-weight="550">家庭阅读室</text><path d="M 669.0 335.6 h 69.0" stroke="#fcfaf5" stroke-width="6.9"/><path d="M 669.0 335.6 h 69.0" stroke="#477e77" stroke-dasharray="4 3" stroke-width="1.5"/><path d="M 662.1 466.7 h 82.8" stroke="#fcfaf5" stroke-width="6.9"/><path d="M 662.1 466.7 h 82.8" stroke="#477e77" stroke-dasharray="4 3" stroke-width="1.5"/><path d="M 907.05 466.7 h 41.4" stroke="#fcfaf5" stroke-width="6.9"/><path d="M 907.05 466.7 h 41.4" stroke="#477e77" stroke-dasharray="4 3" stroke-width="1.5"/><path d="M 907.05 273.5 h 41.4" stroke="#fcfaf5" stroke-width="6.9"/><path d="M 907.05 273.5 h 41.4" stroke="#477e77" stroke-dasharray="4 3" stroke-width="1.5"/><path d="M 336.075 563.3 h 44.85" stroke="#fcfaf5" stroke-width="6.9"/><path d="M 336.075 563.3 h 44.85" stroke="#477e77" stroke-dasharray="4 3" stroke-width="1.5"/><path d="M 430.95 611.5999999999999 v 41.4" stroke="#fcfaf5" stroke-width="6.9"/><path d="M 430.95 611.5999999999999 v 41.4" stroke="#477e77" stroke-dasharray="4 3" stroke-width="1.5"/><path d="M 486.15000000000003 701.3000000000001 h 41.4" stroke="#fcfaf5" stroke-width="6.9"/><path d="M 486.15000000000003 701.3000000000001 h 41.4" stroke="#477e77" stroke-dasharray="4 3" stroke-width="1.5"/><path d="M 681.075 563.3 h 44.85" stroke="#fcfaf5" stroke-width="6.9"/><path d="M 681.075 563.3 h 44.85" stroke="#477e77" stroke-dasharray="4 3" stroke-width="1.5"/><path d="M 180.82500000000002 466.7 h 37.95" stroke="#fcfaf5" stroke-width="6.9"/><path d="M 180.82500000000002 466.7 h 37.95" stroke="#477e77" stroke-dasharray="4 3" stroke-width="1.5"/><path d="M 180.82500000000002 363.2 h 37.95" stroke="#fcfaf5" stroke-width="6.9"/><path d="M 180.82500000000002 363.2 h 37.95" stroke="#477e77" stroke-dasharray="4 3" stroke-width="1.5"/><path d="M 230.85 395.97499999999997 v 37.95" stroke="#fcfaf5" stroke-width="6.9"/><path d="M 230.85 395.97499999999997 v 37.95" stroke="#477e77" stroke-dasharray="4 3" stroke-width="1.5"/><path d="M 387.825 466.7 h 37.95" stroke="#fcfaf5" stroke-width="6.9"/><path d="M 387.825 466.7 h 37.95" stroke="#477e77" stroke-dasharray="4 3" stroke-width="1.5"/><path d="M 387.825 363.2 h 37.95" stroke="#fcfaf5" stroke-width="6.9"/><path d="M 387.825 363.2 h 37.95" stroke="#477e77" stroke-dasharray="4 3" stroke-width="1.5"/><path d="M 437.84999999999997 395.97499999999997 v 37.95" stroke="#fcfaf5" stroke-width="6.9"/><path d="M 437.84999999999997 395.97499999999997 v 37.95" stroke="#477e77" stroke-dasharray="4 3" stroke-width="1.5"/><path d="M 863.925 563.3 h 37.95" stroke="#fcfaf5" stroke-width="6.9"/><path d="M 863.925 563.3 h 37.95" stroke="#477e77" stroke-dasharray="4 3" stroke-width="1.5"/><path d="M 907.05 613.3249999999999 v 37.95" stroke="#fcfaf5" stroke-width="6.9"/><path d="M 907.05 613.3249999999999 v 37.95" stroke="#477e77" stroke-dasharray="4 3" stroke-width="1.5"/><path d="M 907.05 754.775 v 37.95" stroke="#fcfaf5" stroke-width="6.9"/><path d="M 907.05 754.775 v 37.95" stroke="#477e77" stroke-dasharray="4 3" stroke-width="1.5"/><path d="M 220.5 170 h 103.5" stroke="#85b5bd" stroke-width="5"/><path d="M 427.5 170 h 103.5" stroke="#85b5bd" stroke-width="5"/><path d="M 643.125 170 h 120.75" stroke="#85b5bd" stroke-width="5"/><path d="M 221.19 860.0 h 157.32" stroke="#85b5bd" stroke-width="5"/><path d="M 637.95 860.0 h 165.6" stroke="#85b5bd" stroke-width="5"/><path d="M 931.8899999999999 860.0 h 74.52000000000001" stroke="#85b5bd" stroke-width="5"/><path d="M 168.75 883.0 v 12 M 168.75 889.0 h 862.5 M 1031.25 883.0 v 12" stroke="#687d75" fill="none"/><text x="600.00" y="913.00" font-size="14" fill="#263a38" text-anchor="middle" font-weight="400">25 m</text><text x="156.75" y="515.00" font-size="12" fill="#263a38" text-anchor="end" font-weight="400">20m</text><text x="1124.00" y="80.00" font-size="17" fill="#263a38" text-anchor="middle" font-weight="700">N</text><path d="M1124 92 L1117 111 L1131 111 Z" fill="#315951"/><text x="58.00" y="944.00" font-size="13" fill="#263a38" text-anchor="start" font-weight="400">图例：沙色 = 起居 / 米灰 = 卧室 / 蓝灰 = 厨卫 / 浅色 = 通行 / 绿 = 室外</text><text x="58.00" y="968.00" font-size="13" fill="#697773" text-anchor="start" font-weight="400">绿色虚线 = 开口位置；蓝色 = 外窗。家具为尺度符号，不表示最终数量或精确摆放。</text><text x="58.00" y="992.00" font-size="12" fill="#697773" text-anchor="start" font-weight="400">面积按外轮廓与分区占位统计（含墙体及本图阳台），非室内净使用面积；细部须在3D白模阶段复核。</text></svg>